HIERARCHY
ROOT Hips
{
	OFFSET -14.64140 90.27770 -84.91600
	CHANNELS 6 Xposition Yposition Zposition Zrotation Xrotation Yrotation
	JOINT Spine
	{
		OFFSET 0.00000 13.20850 -1.60436
		CHANNELS 3 Zrotation Xrotation Yrotation
		JOINT Spine1
		{
			OFFSET 0.00000 8.61716 0.00000
			CHANNELS 3 Zrotation Xrotation Yrotation
			JOINT Spine2
			{
				OFFSET 0.00000 8.61717 0.00000
				CHANNELS 3 Zrotation Xrotation Yrotation
				JOINT Spine3
				{
					OFFSET 0.00000 8.61717 0.00000
					CHANNELS 3 Zrotation Xrotation Yrotation
					JOINT Neck
					{
						OFFSET 0.00000 11.07920 1.10792
						CHANNELS 3 Zrotation Xrotation Yrotation
						JOINT Neck1
						{
							OFFSET 0.00000 7.08032 0.00000
							CHANNELS 3 Zrotation Xrotation Yrotation
							JOINT Head
							{
								OFFSET 0.00000 7.08031 0.00000
								CHANNELS 3 Zrotation Xrotation Yrotation
								End site
								{
									OFFSET 0.00000 0.00000 0.00000
								}
							}
						}
					}
					JOINT RightShoulder
					{
						OFFSET -0.01000 7.91373 5.19711
						CHANNELS 3 Zrotation Xrotation Yrotation
						JOINT RightArm
						{
							OFFSET -18.41580 0.00000 0.00000
							CHANNELS 3 Zrotation Xrotation Yrotation
							JOINT RightForeArm
							{
								OFFSET -29.11090 0.00000 0.00000
								CHANNELS 3 Zrotation Xrotation Yrotation
								JOINT RightHand
								{
									OFFSET -24.65040 0.00000 0.00000
									CHANNELS 3 Zrotation Xrotation Yrotation
									JOINT RightHandThumb1
									{
										OFFSET -5.35114 -0.85590 3.97906
										CHANNELS 3 Zrotation Xrotation Yrotation
										JOINT RightHandThumb2
										{
											OFFSET -4.52789 0.00000 0.00000
											CHANNELS 3 Zrotation Xrotation Yrotation
											JOINT RightHandThumb3
											{
												OFFSET -2.46976 0.00000 0.00000
												CHANNELS 3 Zrotation Xrotation Yrotation
												End site
												{
													OFFSET 0.00000 0.00000 0.00000
												}
											}
										}
									}
									JOINT RightHandIndex1
									{
										OFFSET -14.26970 0.00000 2.88139
										CHANNELS 3 Zrotation Xrotation Yrotation
										JOINT RightHandIndex2
										{
											OFFSET -5.48836 0.00000 0.00000
											CHANNELS 3 Zrotation Xrotation Yrotation
											JOINT RightHandIndex3
											{
												OFFSET -3.01859 0.00000 0.00000
												CHANNELS 3 Zrotation Xrotation Yrotation
												End site
												{
													OFFSET 0.00000 0.00000 0.00000
												}
											}
										}
									}
									JOINT RightHandMiddle1
									{
										OFFSET -14.26970 0.00000 -0.09147
										CHANNELS 3 Zrotation Xrotation Yrotation
										JOINT RightHandMiddle2
										{
											OFFSET -6.17441 0.00000 0.00000
											CHANNELS 3 Zrotation Xrotation Yrotation
											JOINT RightHandMiddle3
											{
												OFFSET -3.56743 0.00000 0.00000
												CHANNELS 3 Zrotation Xrotation Yrotation
												End site
												{
													OFFSET 0.00000 0.00000 0.00000
												}
											}
										}
									}
									JOINT RightHandRing1
									{
										OFFSET -12.69180 0.00000 -3.06433
										CHANNELS 3 Zrotation Xrotation Yrotation
										JOINT RightHandRing2
										{
											OFFSET -5.62556 0.00000 0.00000
											CHANNELS 3 Zrotation Xrotation Yrotation
											JOINT RightHandRing3
											{
												OFFSET -3.56744 0.00000 0.00000
												CHANNELS 3 Zrotation Xrotation Yrotation
												End site
												{
													OFFSET 0.00000 0.00000 0.00000
												}
											}
										}
									}
									JOINT RightHandPinky1
									{
										OFFSET -11.11390 0.00000 -6.03719
										CHANNELS 3 Zrotation Xrotation Yrotation
										JOINT RightHandPinky2
										{
											OFFSET -4.52789 0.00000 0.00000
											CHANNELS 3 Zrotation Xrotation Yrotation
											JOINT RightHandPinky3
											{
												OFFSET -2.46976 0.00000 0.00000
												CHANNELS 3 Zrotation Xrotation Yrotation
												End site
												{
													OFFSET 0.00000 0.00000 0.00000
												}
											}
										}
									}
								}
							}
						}
					}
					JOINT LeftShoulder
					{
						OFFSET 0.01000 7.91373 5.19711
						CHANNELS 3 Zrotation Xrotation Yrotation
						JOINT LeftArm
						{
							OFFSET 18.41580 0.00000 0.00000
							CHANNELS 3 Zrotation Xrotation Yrotation
							JOINT LeftForeArm
							{
								OFFSET 29.11090 0.00000 0.00000
								CHANNELS 3 Zrotation Xrotation Yrotation
								JOINT LeftHand
								{
									OFFSET 24.65040 0.00000 0.00000
									CHANNELS 3 Zrotation Xrotation Yrotation
									JOINT LeftHandThumb1
									{
										OFFSET 5.35114 -0.85590 3.97906
										CHANNELS 3 Zrotation Xrotation Yrotation
										JOINT LeftHandThumb2
										{
											OFFSET 4.52789 0.00000 0.00000
											CHANNELS 3 Zrotation Xrotation Yrotation
											JOINT LeftHandThumb3
											{
												OFFSET 2.46977 0.00000 0.00000
												CHANNELS 3 Zrotation Xrotation Yrotation
												End site
												{
													OFFSET 0.00000 0.00000 0.00000
												}
											}
										}
									}
									JOINT LeftHandIndex1
									{
										OFFSET 14.26970 0.00000 2.88139
										CHANNELS 3 Zrotation Xrotation Yrotation
										JOINT LeftHandIndex2
										{
											OFFSET 5.48836 0.00000 0.00000
											CHANNELS 3 Zrotation Xrotation Yrotation
											JOINT LeftHandIndex3
											{
												OFFSET 3.01859 0.00000 0.00000
												CHANNELS 3 Zrotation Xrotation Yrotation
												End site
												{
													OFFSET 0.00000 0.00000 0.00000
												}
											}
										}
									}
									JOINT LeftHandMiddle1
									{
										OFFSET 14.26970 0.00000 -0.09147
										CHANNELS 3 Zrotation Xrotation Yrotation
										JOINT LeftHandMiddle2
										{
											OFFSET 6.17440 0.00000 0.00000
											CHANNELS 3 Zrotation Xrotation Yrotation
											JOINT LeftHandMiddle3
											{
												OFFSET 3.56744 0.00000 0.00000
												CHANNELS 3 Zrotation Xrotation Yrotation
												End site
												{
													OFFSET 0.00000 0.00000 0.00000
												}
											}
										}
									}
									JOINT LeftHandRing1
									{
										OFFSET 12.69180 0.00000 -3.06433
										CHANNELS 3 Zrotation Xrotation Yrotation
										JOINT LeftHandRing2
										{
											OFFSET 5.62556 0.00000 0.00000
											CHANNELS 3 Zrotation Xrotation Yrotation
											JOINT LeftHandRing3
											{
												OFFSET 3.56744 0.00000 0.00000
												CHANNELS 3 Zrotation Xrotation Yrotation
												End site
												{
													OFFSET 0.00000 0.00000 0.00000
												}
											}
										}
									}
									JOINT LeftHandPinky1
									{
										OFFSET 11.11390 0.00000 -6.03719
										CHANNELS 3 Zrotation Xrotation Yrotation
										JOINT LeftHandPinky2
										{
											OFFSET 4.52789 0.00000 0.00000
											CHANNELS 3 Zrotation Xrotation Yrotation
											JOINT LeftHandPinky3
											{
												OFFSET 2.46976 0.00000 0.00000
												CHANNELS 3 Zrotation Xrotation Yrotation
												End site
												{
													OFFSET 0.00000 0.00000 0.00000
												}
											}
										}
									}
								}
							}
						}
					}
					JOINT pCube4
					{
						OFFSET 0.00000 10.91090 1.10792
						CHANNELS 3 Zrotation Xrotation Yrotation
						End site
						{
							OFFSET 0.00000 0.00000 0.00000
						}
					}
				}
			}
		}
	}
	JOINT RightUpLeg
	{
		OFFSET -9.98441 0.00000 0.00000
		CHANNELS 3 Zrotation Xrotation Yrotation
		JOINT RightLeg
		{
			OFFSET 0.00000 -42.11790 0.00000
			CHANNELS 3 Zrotation Xrotation Yrotation
			JOINT RightFoot
			{
				OFFSET 0.00000 -45.00020 -0.00001
				CHANNELS 3 Zrotation Xrotation Yrotation
				JOINT RightForeFoot
				{
					OFFSET 0.00000 -3.74820 0.00000
					CHANNELS 3 Zrotation Xrotation Yrotation
					JOINT RightToeBase
					{
						OFFSET 0.00000 0.06325 14.43120
						CHANNELS 3 Zrotation Xrotation Yrotation
						End site
						{
							OFFSET 0.00000 0.00000 0.00000
						}
					}
				}
			}
		}
	}
	JOINT LeftUpLeg
	{
		OFFSET 9.98441 0.00000 0.00000
		CHANNELS 3 Zrotation Xrotation Yrotation
		JOINT LeftLeg
		{
			OFFSET 0.00000 -42.11800 0.00000
			CHANNELS 3 Zrotation Xrotation Yrotation
			JOINT LeftFoot
			{
				OFFSET 0.00000 -45.00070 0.00000
				CHANNELS 3 Zrotation Xrotation Yrotation
				JOINT LeftForeFoot
				{
					OFFSET 0.00000 -3.74824 0.00000
					CHANNELS 3 Zrotation Xrotation Yrotation
					JOINT LeftToeBase
					{
						OFFSET 0.00000 0.06325 14.43110
						CHANNELS 3 Zrotation Xrotation Yrotation
						End site
						{
							OFFSET 0.00000 0.00000 0.00000
						}
					}
				}
			}
		}
	}
}
MOTION
Frames: 4
Frame Time: 0.050000
0.032896305151029065 0.024387483203660784 0.017614772006054477 0.043254279636397344 0.004208064042732521 -0.042953677387184974 2.6276328887601808 3.6839277528707317 -1.762075600810852 -0.8466663721687712 3.541238349152479 0.39040324762209083 -0.7235982047985489 -0.9709107967246524 0.3978052817605363 -0.62370842085352 -0.09087393792293111 -0.36111619891757984 -0.22379643751109737 10.548159263535396 -0.47297388678577473 0.3245609953597077 -2.1242853175118954 -1.5792826855352318 0.7577499571063604 -19.440733733318382 -0.17149428084896762 -7.281446861120328 2.8882843765449078 -15.958739479545422 82.95003168198899 20.549885272928424 2.3482588480384066 -8.360470494821648 0.4866634851604022 50.67130522263751 19.080366504312078 -0.305245349830256 -3.189536913929021 4.489545966362973 -0.16001385453798034 -1.60810212578018 0.03551520992410921 0.04084508188863531 -56.227416657389206 -0.008105375745039911 0.0021367675069780805 -56.19319980829027 -38.775699135482355 -0.00013546315244479913 0.03333426636254758 0.008451533088069667 -0.034601285172343996 0.0032427800635674714 0.04847843528336799 0.010737653923595467 -0.03735552328421435 -36.6694096154268 0.00468484279488518 0.028600307996448783 0.0179403114864319 -0.04748130921388178 0.014690731113692974 -0.009193209394619827 -0.006621056333114718 0.006199910539697677 -19.75961840433678 0.02124211884180185 0.030466968027880365 -0.0010396315542694954 0.014090556882585384 0.04836372497365636 0.02805890478532317 -0.00500673821318398 0.024786901522849816 24.014540828540063 0.0176975791106679 -0.04817416069099523 28.87703941239703 -0.0025158882966147935 -0.018752747478546092 28.844609367497977 -0.015523746562395645 0.0013600954692228665 7.648452661381406 1.9315423631620028 13.58993839730703 -77.3538721617047 24.81521134270672 -8.525750753267795 -0.5989954359385499 -0.33888279986586517 -41.59455034694792 -19.945846755701748 -5.277907694513533 6.2486453509212705 -0.4262081687749214 0.09879655587076823 -8.127962383018353 0.011919410772591382 -0.027835294675805266 44.56146668196835 0.01699455059050059 -0.03970019551608479 44.59111725250427 12.456544431927579 0.006119244417025221 -0.0016687721090604029 -0.017329569619679037 0.04782626195476543 0.034082286902091634 -0.031730424670246955 0.02456897239499479 0.03883825796653075 11.148271456607775 -0.038719398787916304 -0.013676086693892545 -0.02034698281459355 0.02170270948903885 0.006238030966895008 -0.013665918033080671 -0.022361140677975965 0.006912536037185871 4.7288705041938215 -0.0280041032994864 -0.04049932894642474 -0.02645337914865881 0.047342224728338565 -0.0007573685804171547 -0.03114282608903155 -0.0354011234212909 0.011699983348658486 -5.5972490581232055 0.022394202313623292 0.03361206544391457 -6.723450951688136 0.018585782085941 0.025414535300631112 -6.697600162499503 -0.010032709697906686 0.000838665689083125 -0.02650228119312223 -0.026881736385422978 0.034231565008790266 8.006417510015416 3.4835593807091882 -19.246762332491226 -0.04659814463709457 10.431707683079368 -0.02496723541611971 -5.613231348464175 -15.646746676272018 3.2209496916840163 -0.04510359286923376 0.029878681039165324 0.02487136592004923 0.0296673059367652 4.658210608068412 0.03148437042797345 12.44891273682251 -8.28203168524952 6.894601232565894 -0.03956854082849221 46.383399639568495 0.035908636216383745 -4.309018400960525 -14.740813093008805 -3.8197288493309207 0.0025804434844514616 0.029852162958715657 -0.012646646677568199 0.042782183146678615 -10.791445253890704 0.031116584245460578 
0.03979170981269552 0.011083554484426501 -0.02808865593750829 0.033449143075127724 0.04203411125460832 0.034373740240898246 2.895614483094818 3.639004028778091 -1.7929089374393348 -0.8405236988042306 3.532381098623266 0.37570751618151266 -0.7832981635016804 -1.0173713702322695 0.4663832378112304 -0.5946436844397962 -0.09068008230082143 -0.36833001475658345 -0.14161956096823383 10.57591325381474 -0.617750533903731 0.2875947106085614 -2.0722407924358386 -1.766645828161824 0.7889421920921045 -19.30746260532444 -0.2683585335007961 -7.451929288821489 2.924208673760348 -16.23400301186874 83.22647627183056 20.705650625421015 2.401134342107917 -9.109013295416652 -0.0830656401841039 50.89272923539366 18.89604034207575 -0.2472020002937625 -3.23772297985191 4.532494660517926 -0.12403117117762828 -1.633956031624409 -0.005321937241752752 -0.028450530934417736 -56.22421112973039 -0.03316857639880844 0.04586120822730014 -56.24433179784483 -38.756108964743525 -0.00560554038734519 0.04759010119767182 -0.03163061193101355 0.03845676894236855 -0.026057020614717485 0.014505798565645094 -0.03293018560334941 -0.011491721514905094 -36.6795137957948 0.023344387789008172 -0.002259079835779461 -0.028408529078419977 0.009494803919599915 0.03371703274359025 -0.0179166017317423 0.04548956674097003 0.029882526369407275 -19.73111403851293 0.018344837253915888 -0.0472292518035853 0.046984381511537 -0.03213163831175287 0.015912931354887812 -0.00936271877099493 -0.025194768557130702 0.041473738505986776 24.050766350996696 -0.0013579663954768808 0.045086874764695646 28.84525681673297 -0.0006675210923854048 -0.03122263157682132 28.89470448648187 -0.020379732722641854 0.011717535206639072 7.745746316005138 1.9965079010666922 13.685584524749972 -77.45968731830236 25.14828567440624 -8.471825911014903 -0.8178024366392953 -0.0031003322183043285 -42.17266847713606 -20.477547496731102 -5.920178998407784 6.6165789900527745 -0.4361884608936944 0.07697024797512131 -8.087195599171306 -0.04749883885066386 -0.044712714893913964 44.594156541603766 0.04291042359614277 0.03672360129375754 44.56765808958689 12.467087415297788 0.014805693349651495 -0.0013069595486563416 -0.017230338146014913 0.0036972829211486483 -0.007631823033824818 0.02811629603067778 0.02777711378681252 -0.016607295638852524 11.09931872676951 0.033272304194882245 0.04962804917275337 0.012603792354912472 -0.005398518803549513 -0.015350455368997862 0.045272764752568154 0.012850654165559439 -0.011037816224202156 4.807857228412259 0.0021055673772997527 -0.026425643919521288 -0.009178458417809262 -0.039233300646348265 -0.007245755884148711 -0.010234076019152709 0.0023150958393894005 0.036476231758040316 -5.586174642381198 0.026078872038828225 0.027936236224627417 -6.694674026300906 -0.02986450321254063 0.026158242895034243 -6.733138295503339 -0.03216631602355165 -0.0019324128186143706 0.02303112204643146 -0.009391849187061933 -0.04532265719873081 8.027646842746602 3.478602000935848 -19.233790055362746 0.02905174267850459 10.414585859027955 0.03510347539629599 -5.656049478877724 -15.621026127830262 3.2057172072132127 -0.019079093796681556 -0.03242730155929788 0.045341214454730765 0.02498028233587544 4.7119548020709665 0.021183706749040694 12.498081438127633 -8.21625408340024 6.923318893425896 0.02287971572742205 46.377863549312394 0.03716100684041735 -4.371474894111908 -14.761612993400357 -3.855797835919914 -0.027977565043298964 0.046192028914758834 -0.023599098733474797 0.03109337638610575 -10.752001264758666 0.035276177484645656 
-0.025666805553498748 0.006157620839354955 0.021559108937834293 -0.04069769657140687 -0.020580435667136562 0.04289523833787758 3.076141929238812 3.590160745448609 -1.7985467404271072 -0.8467805821429569 3.544580465607092 0.4312194670802565 -0.7440495431985019 -0.958060523474006 0.48189296029167683 -0.5438830322847259 -0.10027988231650316 -0.3812750474099392 -0.15399551424600752 10.679794565434106 -0.6410176108541743 0.29598102637799917 -1.948514978946711 -1.7860856862056025 0.8007245862718148 -19.138723159947833 -0.20811621210747475 -7.564203950122385 2.894124880533032 -16.410850463188247 83.4416415640216 20.935959927355754 2.4743977215069357 -9.430252542092305 -0.9173698276805461 50.38578331199789 18.698645237263825 -0.2855160486586966 -3.3103263248803394 4.4943244310011545 -0.09894604041633676 -1.6271959081329257 -0.004824862415374796 0.045631602876315805 -56.27229686224636 0.03543799831587567 -0.018314722912287616 -56.26082782516409 -38.80108726341423 0.031925727153088536 0.018514737740876683 0.01635007651405568 0.013759436627514584 0.036053724091028486 -0.026757519271936068 -0.0325838937372355 -0.009627872130759028 -36.69630331064752 0.004906023707762703 -0.0037817317171930584 -0.005687934176317623 -0.045308597428330606 0.004744092153698184 0.008432793118505932 -0.02647707136172151 -0.04304007053434771 -19.765605650384302 0.004167485198512394 -0.0028980481859323423 -0.008212452918319658 -0.004838542219539222 -0.011217521264096851 0.004226074053058079 0.034273348290024555 -0.0010912819839268048 24.030379693262375 -0.04979364815942016 -0.01006786246393835 28.876906374134176 0.03396200726604716 0.0035323708807679694 28.89088476190038 -0.02318599723376734 -0.0003301011399352684 7.898059540737687 1.9659327690218027 13.775039137811257 -77.53199944214427 25.457086255714927 -8.498285897781127 -0.7395183186335438 -0.2489757523928583 -42.09536554778947 -20.426177322929068 -6.076013590362301 6.7752328619621895 -0.45239860403141663 0.10844201146102035 -8.150797083208918 0.017336028959456743 0.03301452153695519 44.51817672389612 -0.022065837001106526 -0.030467559434586886 44.58938832317569 12.491595266896924 -0.004438744915840948 -0.00650439859902132 -0.00015057512765730678 0.0003283156399187488 0.013608347232250005 0.044214695153463233 -0.030576356049641196 -0.019676078159871796 11.078305268482406 0.03485568563724418 0.006754180905977647 -0.03396463976041293 0.008409079454729112 0.0024052211412128005 0.019456521030711715 0.015350308096675404 -0.019520280731719457 4.793162070203549 -0.013486658682562934 0.0016912966545286222 0.028885923918405904 -0.012753879849579146 0.004848023098953737 -0.02846940805232335 -0.005122758819078127 -0.0048161040152737925 -5.599757841228182 -0.0157397427901815 0.04133975120026994 -6.717593613675004 0.01817102290825739 -0.027799481418676997 -6.737693588951753 0.03267691774527183 -0.04124620806847212 0.014702207084920788 -0.01263671409928704 0.025119107470199863 8.030454004150359 3.4683375323940324 -19.22948111489477 -0.010509964454118791 10.405917845208451 0.05421730628193937 -5.615418775000898 -15.620933541251649 3.15753547852697 0.02468512026531038 0.005899945229851403 0.021232500424758483 0.0005475062043239795 4.702445111102374 0.04311048580686862 12.464136909652552 -8.217898574249737 6.8966714840494 0.013388969017988151 46.36736233510204 0.045035492959742504 -4.311964468012806 -14.71065192586724 -3.8444094944634513 0.015881103910451357 -0.012379497057914813 -0.04224279582824897 -0.0499033930314914 -10.756170041315903 -0.01583461304171457 
-0.035327644600521395 -0.014722444222749348 -0.01870533817159894 -0.015592156507450073 0.019491750162832236 0.0008823226112027763 3.179457150249636 3.483138674739605 -1.819254797079814 -0.8322843369937347 3.587163671798033 0.4242546688944437 -0.7937766952976141 -0.9810314145046961 0.4226733670049996 -0.5516845462856304 -0.03245972363325142 -0.32970105626177737 -0.18841555732861467 10.697767231627418 -0.5179515764830458 0.34705250308770896 -1.7958961247302252 -1.6650777950312765 0.8324692701881244 -18.958559596267893 -0.2448232259174178 -7.748590242905227 2.931781336808269 -16.5225376082698 83.56432050837806 20.950388936337543 2.0613044919999512 -9.052822741320929 -1.608494216888743 48.747258409840484 18.531466051976306 -0.30714359451632056 -3.356145175971335 4.5118093926663025 -0.0823471724096303 -1.620211978794659 0.04428463097808579 -0.036693314158159046 -56.263312940366 0.022318602274780625 0.004013805979594734 -56.26867632179382 -38.757683434500635 -0.04644787267901068 0.02057565290387668 0.04138557840075702 -0.04403999403526671 0.01309317135106229 -0.010930344494913818 0.001436859891943484 -0.03395370909365035 -36.672510134432294 0.0096501048558825 -0.029091408456599892 -0.01390333340218699 -0.030967245382352127 -0.011363300946830572 -0.007135842796859372 -0.034290416637406514 -0.005533147519273667 -19.798711756171674 -0.024381662663551046 -0.006539844905442079 0.04796643246767984 0.047658123588089144 0.021942427946473338 -0.02787667633422569 0.028672205254494387 0.01189644494286342 24.024483766511764 -0.018172383084539123 0.04097327259336001 28.87249562145239 -0.0033819757231797034 0.0018981390537534133 28.89203432401675 -0.008779036133680591 -0.01575716699986308 7.867818685191068 1.992130370633176 13.879770295480185 -77.51160306575119 25.6539765875253 -8.08202408868942 0.07490834234275397 -0.9906107192426863 -41.20385772488982 -20.06927620738449 -5.75982926350781 6.579435368689445 -0.45701054622670156 0.06959825511482683 -8.163682603314843 -0.00221444774573282 0.048493729127026854 44.58154126156225 -0.033119557078736976 0.021970062662838637 44.58200154070241 12.449360060648445 0.02431505519107525 0.003073818311534376 0.02056017218559775 0.0018477005727083526 0.017185634765343343 -0.0077214581216067555 -0.047674135778221945 -0.03187358136963454 11.135047246127524 -0.004721085189786337 0.042971254455133064 0.019174237345014687 0.01760656352799927 0.010256384732851752 0.039643679720142266 0.026700940932832363 0.0386412295578657 4.733341876359793 -0.009387988004620111 0.015547171748373062 -0.003303958713164469 -0.012830353068539697 0.027828551763728875 -0.0036498909991781524 0.0023563061579112855 0.02067088580508102 -5.556357079635279 -0.0030885670192540198 -0.03067403218265699 -6.7172360354675105 -0.0372432207501048 -0.006272393679365061 -6.752387838884407 0.021572584687864858 -0.0016735359877272028 -0.013077569374658468 -0.036877697026200085 0.04813137317582679 8.032573969555004 3.503829865821406 -19.174505994036597 -0.030423698386197146 10.405818405544565 0.04847144610235472 -5.577447515653811 -15.635942819561196 3.1850905810783607 0.045283713767828616 -0.04804660393435397 -0.017842345112604782 0.03884272916931088 4.72511337004788 0.0060837188067589636 12.491836724130625 -8.243828623119816 6.8920202885777 -0.02058577282678487 46.397351149950445 -0.008201325957419806 -4.308873251414434 -14.756503705435076 -3.808901942698047 0.03002402455702455 -0.03226235359218221 0.002165811001529121 -0.021302615814882277 -10.774062572287578 0.019852508293695698 
